<svg width="40" height="40" viewBox="0 0 40 40" fill="none" xmlns="http://www.w3.org/2000/svg">
  <circle cx="20" cy="20" r="20" fill="black"/>
  <path fill-rule="evenodd" clip-rule="evenodd" d="M19.978 27.5942V24.5469L22.4712 20.7378V24.7547H26.0725V15.3358L28.8428 11.1111V27.5942H19.978ZM25.657 19.4912V20.6685C16.7483 18.3353 12.4267 17.8005 11.0916 19.9759C10.9549 20.1986 11.0128 20.5643 11.0722 20.9397C11.1649 21.5255 11.2614 22.1348 10.6283 22.2614C9.31245 22.1229 7.6253 20.7072 7.7888 18.3138C7.99657 15.8206 13.7756 15.2342 25.657 19.4912ZM28.7043 11.1111L23.7871 18.5908L23.6915 18.7353C20.8387 17.6983 18.2822 17.0355 16.0963 16.6791L19.8395 11.1111H28.7043ZM14.7347 18.7045C16.6771 18.7521 19.3523 19.2501 22.838 20.0256L17.831 27.5942H8.7584L14.7347 18.7045Z" fill="white"/>
  </svg>